<?xml version="1.0" encoding="UTF-8"?>
<svg version="1.1" xmlns="http://www.w3.org/2000/svg" width="78" height="78">
<path d="M0 0 C25.74 0 51.48 0 78 0 C78 25.74 78 51.48 78 78 C52.26 78 26.52 78 0 78 C0 52.26 0 26.52 0 0 Z " fill="#1C3767" transform="translate(0,0)"/>
<path d="M0 0 C1.51400391 0.01740234 1.51400391 0.01740234 3.05859375 0.03515625 C4.07050781 0.04417969 5.08242188 0.05320312 6.125 0.0625 C6.90746094 0.07410156 7.68992188 0.08570312 8.49609375 0.09765625 C8.49609375 3.39765625 8.49609375 6.69765625 8.49609375 10.09765625 C19.38609375 10.59265625 19.38609375 10.59265625 30.49609375 11.09765625 C30.49609375 13.73765625 30.49609375 16.37765625 30.49609375 19.09765625 C11.72353684 20.00253084 -6.72675729 20.09931619 -25.50390625 19.09765625 C-25.50390625 16.12765625 -25.50390625 13.15765625 -25.50390625 10.09765625 C-18.24390625 9.76765625 -10.98390625 9.43765625 -3.50390625 9.09765625 C-3.50390625 6.45765625 -3.50390625 3.81765625 -3.50390625 1.09765625 C-2.50390625 0.09765625 -2.50390625 0.09765625 0 0 Z " fill="#E9EAEC" transform="translate(34.50390625,22.90234375)"/>
<path d="M0 0 C18.48 0 36.96 0 56 0 C56 2.64 56 5.28 56 8 C37.52 8 19.04 8 0 8 C0 5.36 0 2.72 0 0 Z " fill="#EBECEE" transform="translate(9,44)"/>
<path d="M0 0 C8.91 0 17.82 0 27 0 C27 2.64 27 5.28 27 8 C18.09 8 9.18 8 0 8 C0 5.36 0 2.72 0 0 Z " fill="#EAEBED" transform="translate(9,34)"/>
<path d="M0 0 C1.51400391 0.01740234 1.51400391 0.01740234 3.05859375 0.03515625 C4.07050781 0.04417969 5.08242188 0.05320312 6.125 0.0625 C6.90746094 0.07410156 7.68992188 0.08570312 8.49609375 0.09765625 C8.49609375 3.39765625 8.49609375 6.69765625 8.49609375 10.09765625 C7.17609375 10.42765625 5.85609375 10.75765625 4.49609375 11.09765625 C4.16609375 14.06765625 3.83609375 17.03765625 3.49609375 20.09765625 C2.83609375 20.09765625 2.17609375 20.09765625 1.49609375 20.09765625 C1.49609375 17.12765625 1.49609375 14.15765625 1.49609375 11.09765625 C-7.41390625 11.09765625 -16.32390625 11.09765625 -25.50390625 11.09765625 C-25.50390625 10.76765625 -25.50390625 10.43765625 -25.50390625 10.09765625 C-18.24390625 9.76765625 -10.98390625 9.43765625 -3.50390625 9.09765625 C-3.50390625 6.45765625 -3.50390625 3.81765625 -3.50390625 1.09765625 C-2.50390625 0.09765625 -2.50390625 0.09765625 0 0 Z " fill="#717E9C" transform="translate(34.50390625,22.90234375)"/>
<path d="M0 0 C3.96 0 7.92 0 12 0 C12 2.64 12 5.28 12 8 C8.04 8 4.08 8 0 8 C0 5.36 0 2.72 0 0 Z " fill="#DFE1E6" transform="translate(9,24)"/>
<path d="M0 0 C3.63 0 7.26 0 11 0 C11 2.64 11 5.28 11 8 C7.37 8 3.74 8 0 8 C0 5.36 0 2.72 0 0 Z " fill="#E8E9EC" transform="translate(54,24)"/>
<path d="M0 0 C4.29 0 8.58 0 13 0 C13.09088753 6.45301461 12.82574651 12.60046458 12 19 C11.67 19 11.34 19 11 19 C11 16.36 11 13.72 11 11 C2.42 11 -6.16 11 -15 11 C-15 10.67 -15 10.34 -15 10 C-6.31238511 9.34344611 2.28217363 8.83688059 11 9 C11 6.36 11 3.72 11 1 C7.37 1 3.74 1 0 1 C0 0.67 0 0.34 0 0 Z " fill="#5E6F90" transform="translate(54,23)"/>
<path d="M0 0 C3.3 0 6.6 0 10 0 C10 2.31 10 4.62 10 7 C6.7 7 3.4 7 0 7 C0 4.69 0 2.38 0 0 Z " fill="#F0F1F2" transform="translate(32,24)"/>
</svg>
